<svg width="18" height="17" viewBox="0 0 18 17" fill="none" xmlns="http://www.w3.org/2000/svg">
<path fill-rule="evenodd" clip-rule="evenodd" d="M0 3C0 1.34315 1.34315 0 3 0H15C16.6569 0 18 1.34315 18 3V11.3529C18 13.0098 16.6569 14.3529 15 14.3529H10.2765C9.94855 14.3529 9.64147 14.5137 9.45465 14.7832L8.21609 16.5697C7.90143 17.0236 7.2784 17.1365 6.82452 16.8218C6.37064 16.5072 6.25778 15.8841 6.57244 15.4303L7.811 13.6437C8.37148 12.8352 9.29272 12.3529 10.2765 12.3529H15C15.5523 12.3529 16 11.9052 16 11.3529V3C16 2.44772 15.5523 2 15 2H3C2.44772 2 2 2.44772 2 3V11.3529C2 11.9052 2.44772 12.3529 3 12.3529H4.64158C5.19386 12.3529 5.64158 12.8007 5.64158 13.3529C5.64158 13.9052 5.19386 14.3529 4.64158 14.3529H3C1.34314 14.3529 0 13.0098 0 11.3529V3Z" fill="#333333"/>
</svg>

