<svg width="24" height="24" viewBox="0 0 24 24" fill="none" xmlns="http://www.w3.org/2000/svg">
<path fill-rule="evenodd" clip-rule="evenodd" d="M1.87868 3.87868C2.44129 3.31607 3.20435 3 4 3H11C11.5523 3 12 3.44772 12 4C12 4.55228 11.5523 5 11 5H4C3.73478 5 3.48043 5.10536 3.29289 5.29289C3.10536 5.48043 3 5.73478 3 6V20C3 20.2652 3.10536 20.5196 3.29289 20.7071C3.48043 20.8946 3.73478 21 4 21H18C18.2652 21 18.5196 20.8946 18.7071 20.7071C18.8946 20.5196 19 20.2652 19 20V13C19 12.4477 19.4477 12 20 12C20.5523 12 21 12.4477 21 13V20C21 20.7957 20.6839 21.5587 20.1213 22.1213C19.5587 22.6839 18.7957 23 18 23H4C3.20435 23 2.44129 22.6839 1.87868 22.1213C1.31607 21.5587 1 20.7957 1 20V6C1 5.20435 1.31607 4.44129 1.87868 3.87868Z" fill="#222222"/>
<path fill-rule="evenodd" clip-rule="evenodd" d="M18.8983 4C18.6061 4 18.3259 4.11607 18.1193 4.32268L9.89374 12.5482L9.37439 14.6256L11.4518 14.1063L19.6773 5.88073C19.8839 5.67412 20 5.3939 20 5.10171C20 4.80952 19.8839 4.52929 19.6773 4.32268C19.4707 4.11607 19.1905 4 18.8983 4ZM16.7051 2.90847C17.2868 2.32679 18.0757 2 18.8983 2C19.7209 2 20.5099 2.32679 21.0916 2.90847C21.6732 3.49015 22 4.27908 22 5.10171C22 5.92433 21.6732 6.71326 21.0916 7.29494L12.6701 15.7164C12.542 15.8445 12.3814 15.9354 12.2056 15.9794L8.24256 16.9701C7.90178 17.0553 7.54129 16.9555 7.29291 16.7071C7.04453 16.4587 6.94468 16.0982 7.02988 15.7575L8.02063 11.7944C8.06459 11.6186 8.15551 11.458 8.28367 11.3299L16.7051 2.90847Z" fill="#222222"/>
</svg>
