<svg width="100" height="100" viewBox="0 0 100 100" fill="none" xmlns="http://www.w3.org/2000/svg">
<path d="M18.265 86.6176C17.6671 87.2158 17.697 88.1996 18.3513 88.7355C26.5303 95.4347 36.8698 99.5912 48.1645 99.9991C48.9743 100.028 49.635 99.3701 49.635 98.5592C49.635 97.7568 48.9874 97.1066 48.186 97.0763C37.6151 96.6755 27.9366 92.7873 20.2665 86.5285C19.6735 86.0446 18.806 86.0762 18.265 86.6176Z" fill="url(#paint0_linear)"/>
<path d="M1.74328 54.0172C2.50192 54.0172 3.1351 54.5994 3.22037 55.3537C4.4113 65.8889 9.07471 75.371 16.0378 82.6266C16.6004 83.2129 16.6072 84.1446 16.0329 84.7193C15.4671 85.2855 14.5496 85.2917 13.9943 84.7152C6.54401 76.9798 1.55998 66.8496 0.308805 55.592C0.214651 54.7449 0.891449 54.0172 1.74328 54.0172Z" fill="url(#paint1_linear)"/>
<path d="M13.0797 18.6485C13.6164 19.1856 13.6527 20.0454 13.1793 20.6391C6.75801 28.6916 2.91971 38.8973 2.91971 50C2.91971 50.601 2.43787 51.0956 1.83721 51.0956H1.10671C0.498215 51.0956 0 50.6089 0 50C0 38.1755 4.09935 27.309 10.9535 18.746C11.4858 18.081 12.4776 18.0461 13.0797 18.6485Z" fill="url(#paint2_linear)"/>
<path d="M49.635 1.44076C49.635 2.24321 48.9875 2.89339 48.1861 2.92376C36.07 3.38304 25.1261 8.4239 17.0351 16.3648C16.451 16.9381 15.5114 16.9501 14.9329 16.3711C14.3714 15.8093 14.3606 14.8996 14.9265 14.3422C23.5457 5.8524 35.2287 0.467998 48.1647 0.000937891C48.9745 -0.0283007 49.635 0.629908 49.635 1.44076Z" fill="url(#paint3_linear)"/>
<path d="M84.697 16.0111C84.1227 16.5858 83.1915 16.5789 82.6057 16.016C75.0314 8.73775 65.0292 3.97046 53.9358 3.05173C53.1625 2.98768 52.5547 2.34711 52.5547 1.57065C52.5547 0.735035 53.2548 0.0652252 54.0872 0.132608C65.9374 1.09193 76.6201 6.18591 84.6929 13.9712C85.269 14.5268 85.2628 15.4449 84.697 16.0111Z" fill="url(#paint4_linear)"/>
<path d="M98.1628 51.0956C97.5621 51.0956 97.0803 50.6011 97.0803 50C97.0803 38.7165 93.116 28.3594 86.505 20.2474C86.0214 19.6541 86.053 18.786 86.5941 18.2446C87.1919 17.6463 88.175 17.6762 88.7106 18.3309C95.7665 26.9566 100 37.9836 100 50C100 50.6089 99.5018 51.0956 98.8933 51.0956H98.1628Z" fill="url(#paint5_linear)"/>
<path d="M83.6073 85.0897C83.0287 84.5107 83.0407 83.5705 83.6136 82.9861C90.7695 75.6855 95.5689 66.0637 96.7796 55.3537C96.8649 54.5994 97.4981 54.0172 98.2567 54.0172C99.1086 54.0172 99.7853 54.7449 99.6912 55.592C98.4194 67.0353 93.2905 77.3137 85.6349 85.0961C85.0779 85.6624 84.1688 85.6515 83.6073 85.0897Z" fill="url(#paint6_linear)"/>
<path d="M52.5547 98.4294C52.5547 97.6529 53.1626 97.0123 53.9359 96.9483C63.5017 96.1561 72.2561 92.5022 79.342 86.8444C79.9353 86.3707 80.7946 86.407 81.3313 86.944C81.9334 87.5465 81.8985 88.5389 81.2339 89.0716C73.6729 95.1315 64.3149 99.0394 54.0871 99.8674C53.2548 99.9348 52.5547 99.265 52.5547 98.4294Z" fill="url(#paint7_linear)"/>
<path d="M98.1628 51.0956C97.5621 51.0956 97.0803 50.6011 97.0803 50C97.0803 38.7165 93.116 28.3594 86.505 20.2474C86.0214 19.6541 86.053 18.786 86.5941 18.2446C87.1919 17.6463 88.175 17.6762 88.7106 18.3309C95.7665 26.9566 100 37.9836 100 50C100 50.6089 99.5018 51.0956 98.8933 51.0956H98.1628Z" fill="url(#paint8_linear)"/>
<defs>
<linearGradient id="paint0_linear" x1="21.8978" y1="9.09781" x2="74.1356" y2="91.9675" gradientUnits="userSpaceOnUse">
<stop stop-color="#9AC2F6"/>
<stop offset="0.297337" stop-color="#AE4ECB"/>
<stop offset="0.703611" stop-color="#FF735C"/>
<stop offset="1" stop-color="#EB8356"/>
</linearGradient>
<linearGradient id="paint1_linear" x1="21.8978" y1="9.09781" x2="74.1356" y2="91.9675" gradientUnits="userSpaceOnUse">
<stop stop-color="#9AC2F6"/>
<stop offset="0.297337" stop-color="#AE4ECB"/>
<stop offset="0.703611" stop-color="#FF735C"/>
<stop offset="1" stop-color="#EB8356"/>
</linearGradient>
<linearGradient id="paint2_linear" x1="21.8978" y1="9.09781" x2="74.1356" y2="91.9675" gradientUnits="userSpaceOnUse">
<stop stop-color="#9AC2F6"/>
<stop offset="0.297337" stop-color="#AE4ECB"/>
<stop offset="0.703611" stop-color="#FF735C"/>
<stop offset="1" stop-color="#EB8356"/>
</linearGradient>
<linearGradient id="paint3_linear" x1="21.8978" y1="9.09781" x2="74.1356" y2="91.9675" gradientUnits="userSpaceOnUse">
<stop stop-color="#9AC2F6"/>
<stop offset="0.297337" stop-color="#AE4ECB"/>
<stop offset="0.703611" stop-color="#FF735C"/>
<stop offset="1" stop-color="#EB8356"/>
</linearGradient>
<linearGradient id="paint4_linear" x1="21.8978" y1="9.09781" x2="74.1356" y2="91.9675" gradientUnits="userSpaceOnUse">
<stop stop-color="#9AC2F6"/>
<stop offset="0.297337" stop-color="#AE4ECB"/>
<stop offset="0.703611" stop-color="#FF735C"/>
<stop offset="1" stop-color="#EB8356"/>
</linearGradient>
<linearGradient id="paint5_linear" x1="21.8978" y1="9.09781" x2="74.1356" y2="91.9675" gradientUnits="userSpaceOnUse">
<stop stop-color="#9AC2F6"/>
<stop offset="0.297337" stop-color="#AE4ECB"/>
<stop offset="0.703611" stop-color="#FF735C"/>
<stop offset="1" stop-color="#EB8356"/>
</linearGradient>
<linearGradient id="paint6_linear" x1="21.8978" y1="9.09781" x2="74.1356" y2="91.9675" gradientUnits="userSpaceOnUse">
<stop stop-color="#9AC2F6"/>
<stop offset="0.297337" stop-color="#AE4ECB"/>
<stop offset="0.703611" stop-color="#FF735C"/>
<stop offset="1" stop-color="#EB8356"/>
</linearGradient>
<linearGradient id="paint7_linear" x1="21.8978" y1="9.09781" x2="74.1356" y2="91.9675" gradientUnits="userSpaceOnUse">
<stop stop-color="#9AC2F6"/>
<stop offset="0.297337" stop-color="#AE4ECB"/>
<stop offset="0.703611" stop-color="#FF735C"/>
<stop offset="1" stop-color="#EB8356"/>
</linearGradient>
<linearGradient id="paint8_linear" x1="21.8978" y1="9.09781" x2="74.1356" y2="91.9675" gradientUnits="userSpaceOnUse">
<stop stop-color="#9AC2F6"/>
<stop offset="0.297337" stop-color="#AE4ECB"/>
<stop offset="0.703611" stop-color="#FF735C"/>
<stop offset="1" stop-color="#EB8356"/>
</linearGradient>
</defs>
</svg>
