<svg width="24" height="24" viewBox="0 0 24 24" fill="none" xmlns="http://www.w3.org/2000/svg">
<g clip-path="url(#clip0)">
<path fill-rule="evenodd" clip-rule="evenodd" d="M12.701 11.5443C11.3485 10.1026 9.07131 10.0663 7.67352 11.4641L5.93309 13.2045C4.56626 14.5713 4.56626 16.7874 5.93309 18.1542L6.60424 18.8254C7.97108 20.1922 10.1872 20.1922 11.554 18.8254L13.3589 17.0205C13.7494 16.63 14.3825 16.63 14.7731 17.0205C15.1636 17.411 15.1636 18.0442 14.7731 18.4347L12.9682 20.2396C10.8203 22.3875 7.33791 22.3875 5.19003 20.2396L4.51888 19.5684C2.371 17.4206 2.371 13.9381 4.51888 11.7903L6.25931 10.0498C8.45584 7.85331 12.0343 7.91043 14.1596 10.176L15.229 11.3159C15.6069 11.7187 15.5866 12.3515 15.1839 12.7294C14.7811 13.1072 14.1482 13.087 13.7704 12.6842L12.701 11.5443Z" fill="#222222"/>
<path fill-rule="evenodd" clip-rule="evenodd" d="M13.015 13.1567C14.3663 14.6038 16.6479 14.6428 18.0479 13.2428L19.7808 11.5099C21.1477 10.143 21.1477 7.92697 19.7808 6.56013L19.1097 5.88898C17.7429 4.52215 15.5268 4.52215 14.1599 5.88898L12.3551 7.69385C11.9646 8.08437 11.3314 8.08437 10.9409 7.69385C10.5503 7.30332 10.5503 6.67016 10.9409 6.27963L12.7457 4.47477C14.8936 2.32689 18.376 2.32689 20.5239 4.47477L21.1951 5.14592C23.3429 7.2938 23.3429 10.7762 21.195 12.9241L19.4621 14.657C17.2621 16.857 13.6767 16.7957 11.5532 14.5217L10.7695 13.6825C10.3926 13.2788 10.4142 12.646 10.8179 12.2691C11.2215 11.8921 11.8543 11.9138 12.2313 12.3174L13.015 13.1567Z" fill="#222222"/>
</g>
<defs>
<clipPath id="clip0">
<rect width="24" height="24" fill="white"/>
</clipPath>
</defs>
</svg>
