<svg width="365" height="194" viewBox="0 0 365 194" fill="none" xmlns="http://www.w3.org/2000/svg">
<path d="M281.838 122.891C281.614 123.666 282.127 124.454 282.922 124.569C283.717 124.684 284.433 124.068 284.437 123.267L284.486 113.75L281.838 122.891ZM298.83 116.406L290.612 111.603L297.205 118.469C297.763 119.05 298.703 119.002 299.202 118.369C299.697 117.736 299.525 116.812 298.83 116.406ZM301.056 102.951C301.837 102.758 302.269 101.922 301.969 101.174C301.669 100.426 300.78 100.117 300.082 100.512L291.816 105.227L301.056 102.951ZM289.544 91.8561C289.768 91.0818 289.255 90.2934 288.46 90.1785C287.665 90.0636 286.949 90.6794 286.945 91.4806L286.897 100.998L289.544 91.8561ZM272.558 98.3377L280.775 103.14L274.182 96.2788C273.624 95.6978 272.684 95.7466 272.185 96.379C271.686 97.0067 271.863 97.9313 272.558 98.3377ZM270.326 111.796C269.545 111.989 269.113 112.826 269.413 113.574C269.713 114.322 270.602 114.63 271.3 114.235L279.567 109.516L270.326 111.796ZM287.23 111.77L288.866 118.406C289.004 118.966 289.606 119.276 290.142 119.062C290.678 118.848 290.902 118.21 290.615 117.707L287.23 111.77ZM298.04 109.362C298.123 108.791 297.682 108.28 297.104 108.275L290.267 108.239L296.83 110.14C297.39 110.298 297.958 109.933 298.04 109.362ZM293.587 97.6737C293.133 97.3166 292.469 97.4441 292.178 97.9415L288.731 103.843L293.657 99.1076C294.075 98.7063 294.041 98.0308 293.587 97.6737ZM284.152 102.977L282.516 96.3412C282.378 95.7819 281.777 95.4715 281.24 95.6855C280.704 95.8996 280.481 96.5379 280.768 97.041L284.152 102.977ZM281.115 106.508L274.553 104.608C273.998 104.445 273.429 104.815 273.347 105.386C273.264 105.957 273.706 106.468 274.283 106.474L281.115 106.508ZM277.795 117.074C278.249 117.431 278.914 117.303 279.204 116.806L282.652 110.905L277.725 115.64C277.308 116.036 277.341 116.717 277.795 117.074ZM282.593 107.611L284.624 108.216L285.281 110.23L286.481 108.484L288.595 108.479L287.307 106.801L287.963 104.786L285.965 105.494L284.25 104.25L284.304 106.367L282.593 107.611Z" fill="#CE85DC"/>
<path d="M28.8281 15.778C28.8855 15.3654 28.5633 15 28.1461 15C27.729 15 27.4067 15.3679 27.4642 15.778L28.1461 20.6495L28.8281 15.778ZM20.575 20.3513L25.1561 22.2005L21.2569 19.1756C20.9272 18.9196 20.4476 19.0141 20.2378 19.3745C20.0304 19.7349 20.1878 20.1947 20.575 20.3513ZM20.4301 27.3977C20.0429 27.5543 19.883 28.0141 20.0929 28.3745C20.3027 28.7349 20.7823 28.8268 21.112 28.5733L25.0113 25.551L20.4301 27.3977ZM27.1719 32.222C27.1145 32.6346 27.4367 33 27.8539 33C28.271 33 28.5933 32.6321 28.5358 32.222L27.8539 27.3505L27.1719 32.222ZM35.4225 27.6512L30.8414 25.802L34.7406 28.8244C35.0703 29.0804 35.5499 28.9859 35.7598 28.6255C35.9696 28.2676 35.8097 27.8078 35.4225 27.6512ZM35.5699 20.6023C35.9571 20.4457 36.117 19.9859 35.9071 19.6255C35.6973 19.2651 35.2177 19.1732 34.888 19.4267L30.9887 22.4515L35.5699 20.6023ZM26.8822 21.865L25.5483 18.5915C25.4359 18.3157 25.1037 18.2013 24.8439 18.3505C24.5841 18.4996 24.5167 18.8426 24.7015 19.0787L26.8822 21.865ZM21.5042 23.8956C21.5042 24.1939 21.769 24.4225 22.0662 24.3828L25.5833 23.8956L22.0687 23.4085C21.769 23.3687 21.5042 23.5973 21.5042 23.8956ZM24.6615 29.5452C24.9213 29.6943 25.2535 29.58 25.366 29.3041L26.6998 26.0307L24.5192 28.8169C24.3343 29.053 24.4018 29.396 24.6615 29.5452ZM29.1178 26.135L30.4517 29.4085C30.5641 29.6843 30.8963 29.7987 31.1561 29.6495C31.4159 29.5004 31.4833 29.1574 31.2985 28.9213L29.1178 26.135ZM30.4167 24.1044L33.9313 24.5916C34.2285 24.6338 34.4933 24.4026 34.4933 24.1044C34.4933 23.8061 34.2285 23.5775 33.9313 23.6172L30.4167 24.1044ZM31.3385 18.4548C31.0787 18.3057 30.7464 18.42 30.634 18.6959L29.3002 21.9693L31.4808 19.1831C31.6657 18.9495 31.5982 18.604 31.3385 18.4548Z" fill="#CE85DC"/>
<g opacity="0.8">
<path fill-rule="evenodd" clip-rule="evenodd" d="M107.37 124C107.836 124 108.195 124.418 108.131 124.89L107.37 130.464L106.61 124.89C106.546 124.421 106.905 124 107.37 124ZM104.721 131.552L99.611 129.436C99.1791 129.257 99.0035 128.731 99.2348 128.319C99.4689 127.906 100.004 127.798 100.372 128.091L104.721 131.552ZM99.0732 137.243C98.8391 136.831 99.0174 136.304 99.4494 136.125L104.56 134.012L100.21 137.47C99.8423 137.76 99.3072 137.655 99.0732 137.243ZM107.044 141.849C106.579 141.849 106.22 141.431 106.284 140.959L107.044 135.385L107.805 140.959C107.869 141.428 107.51 141.849 107.044 141.849ZM109.691 134.3L114.801 136.415C115.233 136.594 115.411 137.121 115.177 137.53C114.943 137.942 114.408 138.05 114.04 137.758L109.691 134.3ZM115.342 128.606C115.576 129.018 115.397 129.544 114.965 129.723L109.855 131.839L114.205 128.378C114.573 128.088 115.108 128.193 115.342 128.606ZM102.886 125.114C103.289 124.881 103.81 125.064 103.99 125.505L106.118 130.712L102.673 126.265C102.383 125.891 102.483 125.347 102.886 125.114ZM104.368 132.979L98.8846 133.702C98.421 133.762 98.0059 133.395 98 132.922C97.9966 132.448 98.4059 132.087 98.8709 132.156L104.368 132.979ZM102.322 140.731C101.913 140.491 101.805 139.947 102.089 139.575L105.459 135.19L103.421 140.36C103.247 140.795 102.731 140.971 102.322 140.731ZM111.528 140.735C111.125 140.967 110.605 140.785 110.425 140.344L108.296 135.137L111.742 139.583C112.032 139.958 111.931 140.502 111.528 140.735ZM110.045 132.874L115.529 132.151C115.993 132.09 116.41 132.456 116.412 132.928C116.416 133.402 116.006 133.763 115.541 133.694L110.045 132.874ZM112.093 125.117C112.501 125.357 112.61 125.902 112.326 126.273L108.958 130.661L110.994 125.489C111.168 125.054 111.684 124.877 112.093 125.117Z" fill="#89DECE"/>
</g>
<g opacity="0.8">
<path fill-rule="evenodd" clip-rule="evenodd" d="M251.37 34C251.836 34 252.195 34.418 252.131 34.8901L251.5 41.5L250.61 34.8901C250.546 34.4209 250.905 34 251.37 34ZM249.5 42L243.611 39.4361C243.179 39.257 243.004 38.7309 243.235 38.3185C243.469 37.9062 244.004 37.7981 244.372 38.091L249.5 42ZM243.073 47.2428C242.839 46.8305 243.017 46.3044 243.449 46.1252L249.5 44L244.21 47.4703C243.842 47.7604 243.307 47.6552 243.073 47.2428ZM251.044 51.8486C250.579 51.8486 250.22 51.4306 250.284 50.9585L251.5 45L251.805 50.9585C251.869 51.4277 251.51 51.8486 251.044 51.8486ZM253.5 44.0123L258.801 46.4153C259.233 46.5945 259.411 47.1206 259.177 47.5301C258.943 47.9424 258.408 48.0505 258.04 47.7576L253.5 44.0123ZM259.342 38.6058C259.576 39.0181 259.397 39.5442 258.965 39.7234L253.5 42L258.205 38.3783C258.573 38.0882 259.108 38.1934 259.342 38.6058ZM246.886 35.1141C247.289 34.8815 247.81 35.0638 247.99 35.5046L250.118 40.712L246.673 36.2654C246.383 35.891 246.483 35.3468 246.886 35.1141ZM248.368 42.9788L242.885 43.7017C242.421 43.7625 242.006 43.3947 242 42.9219C241.997 42.4478 242.406 42.0867 242.871 42.1564L248.368 42.9788ZM246.322 50.7314C245.913 50.4913 245.805 49.9466 246.089 49.5754L249.459 45.1904L247.421 50.36C247.247 50.7951 246.731 50.9715 246.322 50.7314ZM255.528 50.7345C255.125 50.9672 254.605 50.7849 254.425 50.344L252.296 45.1366L255.742 49.5833C256.032 49.9576 255.931 50.5018 255.528 50.7345ZM254.045 42.8737L259.529 42.1508C259.993 42.09 260.41 42.4565 260.412 42.9281C260.416 43.4023 260.006 43.7634 259.541 43.6936L254.045 42.8737ZM256.093 35.1172C256.501 35.3573 256.61 35.9021 256.326 36.2732L252.958 40.6607L254.994 35.4887C255.168 35.0536 255.684 34.8772 256.093 35.1172Z" fill="#89DECE"/>
</g>
<path fill-rule="evenodd" clip-rule="evenodd" d="M342.952 159.063L343.022 153.753C343.028 153.306 342.638 152.956 342.194 153.013C341.751 153.071 341.459 153.508 341.575 153.942L342.952 159.063ZM334.383 158.786C334.21 159.2 334.44 159.67 334.872 159.785L339.987 161.133L335.442 158.435C335.053 158.207 334.556 158.372 334.383 158.786ZM335.437 168.442C335.707 168.799 336.23 168.831 336.545 168.513L340.28 164.739L335.664 167.35C335.273 167.571 335.166 168.086 335.437 168.442ZM343.541 166.275L343.471 171.585C343.465 172.032 343.855 172.382 344.298 172.325C344.742 172.267 345.034 171.83 344.917 171.396L343.541 166.275ZM346.506 164.205L351.051 166.903C351.435 167.133 351.933 166.965 352.106 166.551C352.279 166.137 352.049 165.667 351.617 165.551L346.506 164.205ZM351.056 156.896C350.786 156.539 350.263 156.507 349.948 156.825L346.213 160.599L350.828 157.988C351.218 157.77 351.326 157.252 351.056 156.896ZM344.563 159.886L346.874 156.002C347.069 155.675 346.931 155.251 346.579 155.105C346.228 154.958 345.827 155.156 345.728 155.526L344.563 159.886ZM338.365 156.035C338.061 156.267 338.031 156.711 338.3 156.98L341.496 160.151L339.295 156.227C339.105 155.894 338.669 155.804 338.365 156.035ZM335.032 163.602C335.079 163.979 335.451 164.226 335.818 164.125L340.178 162.933L335.665 162.893C335.282 162.89 334.985 163.224 335.032 163.602ZM341.928 165.453L339.617 169.337C339.422 169.664 339.56 170.088 339.912 170.235C340.263 170.381 340.664 170.183 340.763 169.813L341.928 165.453ZM344.995 165.189L347.196 169.112C347.381 169.445 347.82 169.532 348.124 169.301C348.428 169.07 348.458 168.625 348.189 168.356L344.995 165.189ZM351.459 161.737C351.412 161.36 351.04 161.113 350.673 161.214L346.313 162.407L350.826 162.446C351.206 162.451 351.506 162.115 351.459 161.737ZM344.185 162.033L343.799 160.57L342.861 161.755L341.336 161.66L342.196 162.921L341.644 164.328L343.111 163.913L344.293 164.884L344.335 163.37L345.621 162.559L344.185 162.033Z" fill="#FFD081"/>
<g clip-path="url(#clip0)">
<path fill-rule="evenodd" clip-rule="evenodd" d="M341.008 13.7012C341.154 12.7683 343.863 14.1907 343.863 14.1907C343.863 14.1907 343.852 14.1932 343.831 14.1976C344.656 14.3402 345.797 14.8955 345.797 14.8955C345.797 14.8955 342.824 15.5188 343.008 14.4493C343.016 14.4041 343.031 14.3651 343.052 14.3316C342.166 14.4477 340.886 14.4846 341.008 13.7012ZM341.653 18.7073C342.287 19.8535 344.465 17.4266 344.465 17.4266C344.465 17.4266 341.156 17.8074 341.653 18.7073ZM354.561 12.9508C354.561 12.9508 356.739 10.5242 357.373 11.6702C357.862 12.5559 354.664 12.9388 354.563 12.9508C354.562 12.951 354.561 12.9511 354.561 12.9511V12.9508ZM345.167 11.0004C345.397 11.7341 346.949 12.6453 346.949 12.6453C346.949 12.6453 346.136 9.8911 345.364 10.4391C345.332 10.4617 345.303 10.4852 345.279 10.5095C344.821 9.748 344.066 8.70504 343.587 9.16602C342.907 9.81946 344.354 10.6216 345.167 11.0004ZM345.437 22.5564C346.629 23.1163 346.876 20.0253 346.876 20.0253C346.876 20.0253 344.501 22.1167 345.437 22.5564ZM348.41 6.89331C347.137 7.10595 348.805 9.77434 348.805 9.77434C348.805 9.77434 349.409 6.72663 348.41 6.89331ZM353.589 7.82107C352.397 7.26114 352.15 10.3521 352.15 10.3521C352.15 10.3521 354.525 8.26075 353.589 7.82107ZM355.06 16.1892C355.06 16.1892 357.842 17.5324 357.991 16.6516C358.182 15.5298 355.06 16.1892 355.06 16.1892ZM350.07 20.6029C350.07 20.6029 349.467 23.6508 350.466 23.4839C351.738 23.2715 350.07 20.6029 350.07 20.6029ZM353.678 19.2951C353.85 18.7246 352.74 17.909 352.187 17.5438C352.812 16.833 350.336 15.8927 350.336 15.8927C350.336 15.8927 351.333 17.8693 351.991 17.6786C352.235 18.3897 352.866 19.9905 353.472 19.5607C353.496 19.5432 353.519 19.5252 353.539 19.5067C353.935 20.2228 354.877 21.7521 355.439 21.2114C356.172 20.5059 354.429 19.6275 353.678 19.2951ZM349.613 11.5823C349.613 11.5823 348.938 8.83761 350.097 9.00758C351.006 9.14078 349.613 11.5823 349.613 11.5823ZM352.05 12.6453C352.05 12.6453 353.685 10.2735 354.441 11.1817C355.035 11.895 352.05 12.6455 352.05 12.6453ZM353.202 15.1048C353.202 15.1048 356.176 14.4812 355.992 15.5509C355.847 16.3907 353.202 15.1048 353.202 15.1048ZM349.222 18.4177C349.222 18.4177 349.897 21.1626 348.739 20.9924C347.829 20.8589 349.222 18.4177 349.222 18.4177ZM346.785 17.3544C346.785 17.3544 345.15 19.7263 344.395 18.8181C343.8 18.105 346.785 17.3544 346.785 17.3544ZM349.135 14.3707C349.135 14.3707 347.412 12.5366 348.378 12.1791C349.136 11.8988 349.135 14.371 349.135 14.3707ZM349.896 14.2326C349.896 14.2326 349.73 11.7255 350.723 12.047C351.503 12.2998 349.896 14.2326 349.896 14.2326ZM350.486 14.6476C350.486 14.6476 352.078 12.623 352.682 13.4716C353.156 14.1382 350.486 14.6476 350.486 14.6476ZM350.636 15.2826C350.636 15.2826 353.31 14.612 353.184 15.6126C353.087 16.3982 350.636 15.2826 350.636 15.2826ZM349.858 16.308C349.858 16.308 351.151 18.557 350.027 18.6581C349.144 18.7378 349.858 16.308 349.858 16.308ZM349.135 16.0311C349.135 16.0311 348.586 18.6064 347.635 18.0197C346.889 17.5592 349.135 16.0311 349.135 16.0311ZM348.685 15.625C348.685 15.625 346.501 17.2545 346.151 16.2668C345.877 15.4913 348.685 15.625 348.685 15.625ZM348.685 15.0626C348.685 15.0626 345.914 15.0931 346.324 14.1471C346.641 13.4151 348.627 15.0162 348.683 15.0616L348.685 15.0626Z" fill="#FFB02E"/>
</g>
<g clip-path="url(#clip1)">
<path fill-rule="evenodd" clip-rule="evenodd" d="M13.42 170.714C13.42 170.714 8.31239 169.105 8.35116 170.757C8.4 172.861 13.42 170.714 13.42 170.714ZM15.8099 177.802C14.83 179.118 13.0864 181.062 12.0856 179.832C10.95 178.437 16.5316 176.754 16.5316 176.754C16.5316 176.754 16.3541 177.041 16.0647 177.45C16.9858 176.444 19.4769 175.318 19.4769 175.318C19.4769 175.318 17.4603 179.773 15.9238 178.483C15.6935 178.29 15.6804 178.055 15.8099 177.802ZM35.9086 162.18C34.4619 160.402 31.4627 165.258 31.4627 165.258C31.4627 165.258 37.0447 163.575 35.9086 162.18ZM14.2606 164.699C13.0792 166.149 18.713 167.917 18.713 167.917C18.713 167.917 16.6303 165.083 15.2187 164.53C14.333 163.436 12.1961 161.026 11.3862 162.145C10.5016 163.366 12.7139 164.25 14.2606 164.699ZM18.7279 184.635C20.9546 185.23 20.4215 179.829 20.4215 179.829C20.4215 179.829 16.9802 184.168 18.7279 184.635ZM18.9873 156.733C16.8617 157.494 20.5623 161.573 20.5623 161.573C20.5623 161.573 20.6567 156.136 18.9873 156.733ZM28.197 156.724C25.9703 156.129 26.5038 161.53 26.5038 161.53C26.5038 161.53 29.9447 157.191 28.197 156.724ZM34.8398 170.158C33.4753 169.956 30.8456 171.022 30.8456 171.022C30.8456 171.022 35.0804 172.213 35.5905 171.163C36.9936 171.377 38.5289 171.418 38.5204 170.568C38.508 169.289 36.3682 169.7 34.8398 170.158ZM26.1029 179.832C26.1029 179.832 26.0086 185.27 27.6779 184.672C29.804 183.911 26.1029 179.832 26.1029 179.832ZM31.81 176.436C31.1248 175.309 28.3801 174.299 28.3801 174.299C28.3801 174.299 30.5676 178.657 31.6938 177.508C31.822 177.377 31.9008 177.244 31.938 177.11C32.9209 178.281 34.7927 180.245 35.5387 179.215C36.6097 177.735 33.1402 176.751 31.81 176.436ZM22.8448 165.338C22.8448 165.338 20.8897 160.955 22.8775 160.891C24.4373 160.839 22.8448 165.338 22.8448 165.338ZM27.2369 166.381C27.2369 166.381 29.3087 161.738 30.8456 163.028C32.0525 164.041 27.2369 166.381 27.2369 166.381ZM24.2484 176.878C24.2484 176.878 26.2035 181.261 24.2157 181.326C22.6558 181.376 24.2484 176.878 24.2484 176.878ZM17.4657 172.023C17.4657 172.023 12.6848 173.96 12.6707 172.118C12.659 170.67 17.4657 172.023 17.4657 172.023ZM22.5573 169.388C22.5573 169.388 19.0203 166.763 20.5736 165.848C21.7924 165.13 22.5574 169.388 22.5573 169.388ZM23.8255 168.914C23.8255 168.914 22.761 164.647 24.5718 164.893C25.9936 165.086 23.8255 168.914 23.8255 168.914ZM24.9705 169.446C24.9705 169.446 27.0849 165.464 28.3879 166.738C29.4114 167.739 24.971 169.445 24.9705 169.446ZM25.4267 170.493C25.4267 170.493 29.8229 168.508 29.918 170.27C29.9931 171.654 25.4267 170.493 25.4267 170.493ZM25.0987 171.637C25.0987 171.637 29.9104 172.536 28.7153 174.025C27.7769 175.194 25.0987 171.637 25.0987 171.637ZM24.4047 172.5C24.4047 172.5 27.3293 175.973 25.4241 176.496C23.928 176.907 24.4047 172.5 24.4047 172.5ZM23.0726 172.248C23.0726 172.248 22.9262 176.854 21.1068 176.139C19.6784 175.577 23.0726 172.248 23.0726 172.248ZM22.1709 171.688C22.1709 171.688 18.9146 175.173 18.006 173.58C17.2925 172.329 22.1709 171.688 22.1709 171.688ZM21.9964 170.72C21.9964 170.72 17.233 171.632 17.6457 169.875C17.9656 168.516 21.8828 170.657 21.994 170.718L21.9964 170.72Z" fill="#E2B6EA"/>
</g>
<g clip-path="url(#clip2)">
<path d="M74.4783 60.0726C74.4254 59.0965 73.5232 58.3982 72.5669 58.5839C71.6106 58.7696 71.0365 59.7606 71.3517 60.6799L75.0949 71.5999L74.4783 60.0726ZM57.6049 74.2837L68.9345 76.5044L58.6422 71.2715C57.7717 70.8285 56.7145 71.2597 56.3948 72.1834C56.0808 73.106 56.6473 74.0954 57.6049 74.2837ZM60.4259 90.5824C59.6083 91.1155 59.4476 92.2461 60.0899 92.983C60.7322 93.7199 61.8728 93.7182 62.5152 92.9873L70.1016 84.288L60.4259 90.5824ZM78.04 98.6954C78.0929 99.6715 78.9951 100.37 79.9514 100.184C80.9077 99.9984 81.4817 99.0074 81.1665 98.0881L77.4234 87.1682L78.04 98.6954ZM94.9087 84.4911L83.5792 82.2705L93.8704 87.4976C94.7408 87.9406 95.798 87.5095 96.1177 86.5857C96.4386 85.6677 95.8664 84.6795 94.9087 84.4911ZM92.0924 68.1857C92.9099 67.6525 93.0707 66.522 92.4284 65.7851C91.7861 65.0482 90.6455 65.0498 90.0031 65.7807L82.4178 74.4858L92.0924 68.1857ZM72.7412 74.9628L68.2186 68.0151C67.8375 67.4296 67.0247 67.3141 66.4959 67.7733C65.9671 68.2326 65.966 69.0528 66.4954 69.5145L72.7412 74.9628ZM61.3211 82.0357C61.4546 82.7229 62.1639 83.1318 62.8275 82.9079L70.6722 80.2195L62.3973 80.662C61.6923 80.7039 61.1876 81.3486 61.3211 82.0357ZM71.0872 93.6459C71.7494 93.8738 72.4599 93.4625 72.5941 92.7768L74.1872 84.6413L70.4349 92.0315C70.1168 92.6578 70.4249 93.418 71.0872 93.6459ZM79.777 83.8052L84.2996 90.7529C84.6808 91.3385 85.4935 91.454 86.0223 90.9947C86.5511 90.5355 86.5523 89.7152 86.0229 89.2535L79.777 83.8052ZM81.8461 78.5485L90.121 78.106C90.8213 78.071 91.3249 77.4206 91.1914 76.7334C91.058 76.0462 90.3487 75.6373 89.685 75.8613L81.8461 78.5485ZM81.4311 65.1221C80.7688 64.8942 80.0584 65.3056 79.9242 65.9912L78.331 74.1267L82.0834 66.7366C82.4026 66.116 82.0934 65.3501 81.4311 65.1221ZM79.7128 77.8754L77.1449 77.9938L75.589 75.9488L74.9116 78.4275L72.4919 79.2778L74.6371 80.6855L74.6903 83.2541L76.6956 81.6465L79.1569 82.3866L78.2504 79.9837L79.7128 77.8754ZM65.9067 95.5493L65.1322 94.5291L64.7901 95.7662L63.5773 96.1919L64.6534 96.898L64.6829 98.1818L65.6849 97.3751L66.9161 97.7481L66.4572 96.5477L67.1907 95.4901L65.9067 95.5493Z" fill="#FFB02E"/>
</g>
<defs>
<clipPath id="clip0">
<rect width="22.1263" height="22.1263" fill="white" transform="translate(344.167) rotate(24.4743)"/>
</clipPath>
<clipPath id="clip1">
<rect width="38.7259" height="38.7259" fill="white" transform="translate(9.53955 146.176) rotate(14.2609)"/>
</clipPath>
<clipPath id="clip2">
<rect width="56" height="56" fill="white" transform="translate(43 57.6768) rotate(-10.9913)"/>
</clipPath>
</defs>
</svg>
