<svg width="24" height="24" viewBox="0 0 24 24" fill="none" xmlns="http://www.w3.org/2000/svg">
<path d="M7.00378 5.01636C5.34693 5.01636 4.00378 6.3595 4.00378 8.01636V17.0164C4.00378 18.6732 5.34693 20.0164 7.00378 20.0164H16.0038C17.6606 20.0164 19.0038 18.6732 19.0038 17.0164V15.0164C19.0038 14.4641 19.4515 14.0164 20.0038 14.0164C20.5561 14.0164 21.0038 14.4641 21.0038 15.0164V17.0164C21.0038 19.7778 18.7652 22.0164 16.0038 22.0164H7.00378C4.24236 22.0164 2.00378 19.7778 2.00378 17.0164V8.01636C2.00378 5.25493 4.24236 3.01636 7.00378 3.01636H9.00378C9.55607 3.01636 10.0038 3.46407 10.0038 4.01636C10.0038 4.56864 9.55607 5.01636 9.00378 5.01636H7.00378Z" fill="#222222"/>
<path d="M19.0038 6.43057V10.0164C19.0038 10.5686 19.4515 11.0164 20.0038 11.0164C20.5561 11.0164 21.0038 10.5686 21.0038 10.0164V4.01636C21.0038 3.46407 20.5561 3.01636 20.0038 3.01636H14.0038C13.4515 3.01636 13.0038 3.46407 13.0038 4.01636C13.0038 4.56864 13.4515 5.01636 14.0038 5.01636H17.5896L10.2967 12.3093C9.90615 12.6998 9.90615 13.3329 10.2967 13.7235C10.6872 14.114 11.3204 14.114 11.7109 13.7235L19.0038 6.43057Z" fill="#222222"/>
</svg>
